<!DOCTYPE svg PUBLIC "-//W3C//DTD SVG 1.1//EN" "http://www.w3.org/Graphics/SVG/1.1/DTD/svg11.dtd">

<!-- Uploaded to: SVG Repo, www.svgrepo.com, Transformed by: SVG Repo Mixer Tools -->
<svg width="50px" height="50px" viewBox="-2.4 -2.4 28.80 28.80" id="Layer_1" data-name="Layer 1" xmlns="http://www.w3.org/2000/svg" fill="#000000" transform="matrix(1, 0, 0, 1, 0, 0)rotate(0)">

<g id="SVGRepo_bgCarrier" stroke-width="0" transform="translate(0,0), scale(1)">

<path transform="translate(-2.4, -2.4), scale(0.8999999999999999)" d="M16,24.52877691113635C19.779038178033545,24.341073396025347,23.87458943972646,27.01703380635044,26.788774421764508,24.603760500012342C30.12054609875766,21.84467838941902,31.52378568373562,16.878905448521117,30.217729380621403,12.754896048228058C28.989809844812658,8.877611664389445,24.682590331002558,7.300129885681246,20.86478990060213,5.898159681570672C17.632184997426926,4.711084600373185,14.163446856951607,4.249846363371152,11.047025557143819,5.715042592733187C7.894611260611994,7.197161053722491,5.998842463216345,10.171574048179615,4.810600001719072,13.446092468051221C3.3339381767753125,17.515427222850892,0.7023511404891423,22.700351195354717,3.778029522853542,25.746696215230674C6.838418132273576,28.77789728379782,11.697849779447687,24.742463219897978,16,24.52877691113635" fill="#c1766a" strokewidth="0"/>

</g>

<g id="SVGRepo_tracerCarrier" stroke-linecap="round" stroke-linejoin="round" stroke="#CCCCCC" stroke-width="0.144"/>

<g id="SVGRepo_iconCarrier">

<defs>

<style>.cls-1{fill:none;stroke:#fdfbec;stroke-miterlimit:10;stroke-width:1;}</style>

</defs>

<circle class="cls-1" cx="11.52" cy="9.59" r="3.34"/>

<line class="cls-1" x1="16.77" y1="14.84" x2="13.88" y2="11.95"/>

<path class="cls-1" d="M1.5,5.3v9.54a3.82,3.82,0,0,0,3.82,3.82H7.23v2.86L13,18.66h5.73a3.82,3.82,0,0,0,3.82-3.82V5.3a3.82,3.82,0,0,0-3.82-3.82H5.32A3.82,3.82,0,0,0,1.5,5.3Z"/>

</g>

</svg>